<?xml version="1.0" standalone="no"?>
<!DOCTYPE svg PUBLIC "-//W3C//DTD SVG 20010904//EN"
 "http://www.w3.org/TR/2001/REC-SVG-20010904/DTD/svg10.dtd">
<svg version="1.0" xmlns="http://www.w3.org/2000/svg"
 width="512.000000pt" height="512.000000pt" viewBox="0 0 512.000000 512.000000"
 preserveAspectRatio="xMidYMid meet">
<metadata>
Created by potrace 1.11, written by Peter Selinger 2001-2013
</metadata>
<g transform="translate(0.000000,512.000000) scale(0.100000,-0.100000)"
fill="#000000" stroke="none">
<path d="M167 5113 c-2 -5 -3 -42 -2 -84 l2 -76 -84 2 -83 1 0 -83 0 -83 83 0
84 0 -2 68 c-2 97 0 98 89 96 l76 -2 0 84 0 84 -79 0 c-44 0 -81 -3 -84 -7z"/>
<path d="M1640 5099 c-87 -39 -139 -110 -147 -200 l-6 -58 -202 -101 -203
-101 -36 25 c-43 29 -119 47 -171 41 -84 -11 -174 -87 -202 -171 -15 -43 -10
-134 10 -171 l17 -32 -183 -230 -182 -230 -66 6 c-52 4 -74 2 -110 -14 -63
-28 -104 -66 -131 -121 -58 -119 -10 -266 107 -326 l30 -15 1 -257 c0 -172 -3
-259 -10 -265 -6 -5 -32 -25 -57 -44 -64 -47 -94 -110 -93 -195 2 -161 138
-270 297 -237 43 9 113 54 138 88 18 25 26 29 48 24 14 -4 62 -13 106 -20 44
-8 107 -19 140 -25 33 -6 74 -13 90 -15 75 -13 87 -20 100 -58 29 -84 115
-155 197 -163 23 -2 42 -5 44 -6 1 -2 37 -89 79 -195 l77 -192 -25 -33 c-42
-55 -56 -102 -53 -171 4 -71 21 -110 68 -158 94 -94 245 -95 346 -2 l34 31 66
-19 c37 -11 87 -26 112 -33 25 -7 154 -44 287 -82 213 -61 243 -71 243 -89 0
-60 81 -166 143 -188 16 -6 17 -30 17 -310 l0 -303 -32 -18 c-55 -31 -79 -58
-108 -118 -43 -89 -29 -186 38 -260 155 -172 437 -63 429 165 -4 94 -42 158
-127 212 l-35 22 0 298 1 298 44 30 c59 41 65 47 91 97 45 86 32 200 -31 270
-17 19 -30 38 -30 43 0 6 21 73 46 149 38 113 49 138 62 133 10 -2 176 -58
371 -123 329 -110 354 -120 358 -143 11 -78 72 -164 133 -189 l29 -12 0 -419
c0 -230 -2 -425 -5 -434 -4 -8 -12 -15 -18 -15 -23 0 -94 -70 -115 -113 -82
-169 47 -362 236 -353 173 8 283 199 203 355 -20 40 -77 95 -114 113 l-22 10
0 428 0 429 28 12 c37 15 91 69 111 111 22 46 30 119 19 160 l-9 34 111 92
c61 50 129 106 150 124 160 135 355 296 364 302 6 4 26 1 44 -7 118 -48 253 6
312 124 57 116 8 262 -109 322 l-30 15 0 342 -1 342 41 26 c77 48 117 114 121
200 5 102 -44 186 -135 233 -35 18 -62 23 -121 23 l-77 1 -52 65 c-28 36 -57
72 -64 80 -7 8 -39 49 -72 90 -73 92 -74 93 -128 159 l-44 54 19 56 c44 123
-17 256 -141 309 -74 31 -190 10 -252 -44 -16 -15 -102 22 -569 242 l-96 45
-1 40 c-4 81 -63 167 -142 206 -23 11 -61 17 -107 17 -62 1 -77 -3 -120 -29
-28 -18 -63 -52 -82 -80 l-34 -50 -465 0 -465 0 -15 30 c-56 112 -201 164
-313 114z m165 -193 c16 -29 16 -36 4 -61 -20 -41 -60 -62 -95 -50 -72 26 -81
113 -15 147 43 22 82 8 106 -36z m1390 23 c24 -21 30 -76 12 -100 -32 -42 -81
-49 -121 -18 -62 49 -8 159 69 141 11 -3 29 -13 40 -23z m-285 -147 c0 -4 -28
-35 -63 -67 -166 -158 -330 -310 -337 -313 -5 -2 -419 302 -510 375 -12 10 82
12 448 13 254 0 462 -4 462 -8z m526 -138 c66 -30 133 -61 149 -69 17 -7 77
-35 135 -62 58 -27 137 -64 176 -82 63 -29 71 -35 69 -59 -1 -15 3 -41 8 -58
10 -33 12 -31 -109 -139 -12 -11 -57 -51 -99 -90 -43 -38 -118 -106 -167 -150
l-90 -80 -67 68 c-36 37 -88 84 -116 105 -27 20 -52 39 -55 43 -13 16 -156 94
-231 125 -115 49 -211 73 -348 90 l-54 7 54 50 c30 27 105 97 168 155 62 59
125 117 139 130 17 17 31 22 46 17 93 -29 164 -22 229 24 23 17 43 30 43 31 1
0 55 -25 120 -56z m-1817 14 c72 -37 131 -41 208 -13 l50 18 251 -189 c138
-103 250 -190 248 -191 -2 -3 -54 -14 -128 -29 -53 -10 -194 -66 -268 -106
-145 -77 -304 -211 -400 -335 l-25 -33 -120 -5 c-66 -2 -173 -7 -237 -11
l-118 -6 -1 24 c0 12 -2 32 -4 43 -2 11 -7 43 -10 70 -3 28 -7 60 -9 72 -3 12
-7 48 -11 80 -3 32 -8 72 -10 88 -16 106 -18 98 31 139 52 44 85 110 87 174
l2 43 195 99 c107 54 198 99 201 99 3 1 34 -13 68 -31z m-655 -143 c52 -48 17
-135 -55 -135 -72 0 -106 84 -54 135 31 32 74 32 109 0z m3309 -86 c25 -31 22
-81 -7 -108 -63 -59 -153 -1 -130 85 14 52 100 67 137 23z m-3408 -276 c4 -38
9 -77 11 -88 2 -11 7 -43 9 -71 3 -28 7 -61 10 -73 2 -13 7 -49 10 -80 4 -31
9 -64 11 -73 4 -15 -1 -18 -28 -19 -18 -1 -53 -3 -78 -4 -292 -18 -337 -18
-343 0 -4 9 -4 22 0 28 8 14 195 250 204 257 3 3 38 47 78 98 90 115 106 118
116 25z m3295 -15 c19 -6 58 -7 86 -4 l51 6 59 -77 c32 -42 63 -81 69 -87 6
-6 55 -67 109 -136 55 -69 106 -132 113 -141 12 -15 12 -22 -2 -55 -9 -22 -17
-60 -17 -86 -1 -46 -2 -47 -52 -74 -28 -15 -64 -35 -81 -44 -16 -9 -111 -61
-210 -115 -99 -53 -194 -106 -212 -115 -29 -17 -32 -17 -50 -1 -10 9 -49 43
-88 75 -38 32 -92 77 -119 99 -27 23 -57 48 -67 55 -10 6 -23 29 -30 50 -6 20
-31 77 -55 125 -49 99 -53 120 -23 140 11 8 43 37 72 63 29 27 92 85 142 129
49 44 110 99 135 121 25 23 58 53 74 68 18 16 36 24 45 20 9 -3 32 -11 51 -16z
m-3850 -456 c11 -13 20 -36 20 -49 0 -27 -50 -83 -74 -83 -31 0 -66 20 -79 47
-42 86 74 160 133 85z m4620 -77 c32 -34 30 -83 -5 -112 -61 -53 -147 -1 -130
78 13 60 92 80 135 34z m-3483 -7 c-91 -208 -121 -339 -121 -533 -1 -143 9
-229 37 -323 l16 -51 -26 -17 c-21 -13 -30 -14 -42 -5 -9 6 -33 19 -53 29 -39
18 -39 17 -53 132 -4 25 -8 56 -10 70 -2 14 -6 45 -9 70 -6 49 -44 343 -52
400 -3 19 -7 50 -9 67 -3 18 -8 57 -11 85 -4 29 -8 56 -11 61 -5 9 -14 7 87
14 47 2 86 6 87 6 1 1 41 3 88 5 67 2 86 -1 82 -10z m-506 -28 c0 -8 2 -22 3
-30 2 -8 6 -35 9 -60 7 -55 47 -365 52 -400 2 -14 8 -65 15 -115 6 -49 13
-101 16 -115 2 -14 7 -52 10 -86 6 -58 5 -61 -22 -79 -32 -20 -74 -64 -74 -76
0 -8 -35 -5 -90 6 -14 3 -74 14 -135 25 -60 11 -119 22 -130 24 -11 2 -38 7
-61 10 -37 7 -42 11 -53 45 -14 47 -80 124 -121 141 l-30 12 0 263 0 262 46
29 c38 24 95 91 106 125 4 12 43 16 248 24 91 4 166 8 167 9 10 9 43 -2 44
-14z m3832 -243 c16 -6 17 -32 17 -352 l0 -345 -24 -12 c-19 -8 -28 -8 -39 3
-17 16 -28 26 -162 138 -55 45 -109 90 -120 100 -11 9 -75 62 -142 118 l-122
102 52 29 c29 16 93 51 142 77 50 26 95 51 100 55 6 4 51 29 100 55 50 26 99
54 109 61 16 11 23 10 45 -5 14 -10 34 -21 44 -24z m-932 -179 c21 -17 39 -34
39 -37 0 -3 -18 -16 -40 -29 -37 -21 -40 -21 -41 -5 0 10 -3 37 -5 61 -3 23
-2 42 1 42 3 0 24 -14 46 -32z m466 -389 c341 -284 317 -261 273 -255 -19 3
-69 8 -110 11 -41 3 -93 8 -115 10 -22 2 -71 7 -110 10 -38 3 -88 8 -110 10
-22 2 -75 7 -118 10 -43 4 -88 8 -100 10 -12 2 -62 6 -112 10 -49 4 -92 9 -94
11 -2 2 3 23 13 46 19 52 46 151 51 193 2 17 14 37 26 45 31 21 213 119 221
120 4 0 133 -104 285 -231z m-3997 -69 c23 -32 25 -49 8 -85 -15 -32 -75 -53
-106 -36 -57 30 -58 116 -2 143 41 20 76 12 100 -22z m884 -142 c37 -16 53
-68 33 -107 -29 -58 -110 -56 -142 3 -16 30 -16 34 -1 65 24 46 64 60 110 39z
m261 -48 c8 -16 15 -31 15 -33 0 -10 -51 7 -62 20 -10 12 -9 18 7 29 24 18 22
19 40 -16z m3463 -35 c7 -3 19 -19 26 -37 24 -56 -5 -102 -70 -114 -37 -7 -85
44 -82 86 4 59 61 88 126 65z m-1178 -49 c36 -3 85 -8 110 -11 25 -3 70 -7
100 -9 121 -11 197 -18 230 -22 19 -2 67 -6 105 -9 39 -3 90 -8 115 -10 25 -2
83 -7 130 -10 105 -8 126 -23 84 -58 -16 -14 -159 -133 -317 -265 l-289 -240
-36 15 c-48 20 -137 20 -184 -1 -21 -9 -52 -29 -70 -45 l-34 -29 -302 100
c-247 82 -300 103 -291 114 6 8 16 14 21 14 18 0 131 72 213 136 100 77 166
146 240 249 49 69 85 99 105 89 3 -1 34 -5 70 -8z m-2241 -141 c126 -42 138
-48 195 -103 177 -169 365 -270 606 -327 3 -1 26 -5 51 -9 l47 -8 30 -96 c17
-54 39 -123 48 -154 l18 -58 -24 -25 c-13 -14 -28 -25 -34 -25 -27 0 -699 196
-701 205 -36 132 -109 206 -218 221 l-42 6 -78 195 c-61 153 -75 198 -66 209
16 20 20 19 168 -31z m1221 -453 c0 -13 -72 -223 -75 -220 -6 5 -65 194 -65
206 0 6 23 12 52 14 29 2 61 4 70 5 10 1 18 -1 18 -5z m-1186 -108 c65 -42 26
-144 -54 -144 -41 0 -75 48 -71 102 3 48 78 73 125 42z m2401 -89 c51 -50 18
-135 -52 -135 -23 0 -42 8 -60 26 -21 21 -24 32 -19 62 11 70 83 96 131 47z
m-1235 -250 c32 -34 30 -83 -5 -112 -44 -39 -105 -25 -124 28 -15 45 -14 54
12 83 30 35 85 36 117 1z m-6 -1067 c57 -52 24 -138 -53 -138 -46 0 -72 24
-76 74 -7 71 75 112 129 64z m1240 -3 c37 -34 38 -75 3 -113 -30 -32 -92 -28
-120 10 -57 76 46 169 117 103z"/>
<path d="M340 4952 c-6 -2 -10 -39 -10 -82 l0 -79 -82 -3 -83 -3 0 -65 c-1
-100 -5 -95 86 -96 l79 0 0 83 0 83 83 0 83 0 0 80 c0 44 -3 80 -6 81 -14 3
-141 4 -150 1z"/>
<path d="M4790 4707 l0 -83 83 0 82 0 -1 81 0 80 -82 3 -82 3 0 -84z"/>
<path d="M4631 4620 c-4 -3 -7 -39 -7 -80 l1 -75 83 -3 82 -3 0 -82 0 -83 80
1 c45 0 81 4 81 10 1 5 2 42 3 80 l1 70 83 3 83 3 -3 82 -3 82 -73 0 c-40 1
-76 -3 -81 -9 -4 -6 -8 -44 -7 -84 l1 -72 -82 0 -83 0 0 80 c0 44 -3 81 -7 81
-26 4 -145 4 -152 -1z"/>
<path d="M497 2055 c-2 -5 -3 -41 -3 -80 l1 -70 82 -3 82 -3 3 -82 3 -82 80 0
80 1 0 82 0 82 -82 0 -83 0 0 83 0 82 -80 0 c-46 0 -81 -4 -83 -10z"/>
<path d="M330 1817 l0 -83 73 1 c39 1 77 0 83 -2 6 -2 10 -35 9 -83 l-1 -80
83 0 83 0 0 83 0 83 -75 -2 c-46 -1 -78 3 -83 10 -4 6 -7 43 -7 81 l0 70 -82
3 -83 3 0 -84z"/>
<path d="M4295 1243 c1 -43 3 -80 4 -83 0 -3 37 -5 81 -4 l80 1 0 -83 0 -83
-82 -3 -83 -3 0 -80 0 -79 80 -1 80 0 3 83 3 82 79 0 c44 0 81 3 81 8 7 40 3
152 -6 153 -5 1 -41 3 -80 3 l-70 2 -3 82 -3 82 -83 0 -83 0 2 -77z"/>
<path d="M990 1073 l0 -83 -80 0 c-44 0 -81 -3 -81 -7 -1 -5 -2 -41 -3 -80 -1
-59 2 -73 14 -74 8 -1 44 -2 80 -3 l65 -1 3 -82 3 -83 82 0 83 0 0 84 1 83
-83 -2 -84 -2 0 84 0 84 82 -3 83 -3 1 -73 c1 -40 4 -76 8 -79 4 -4 41 -8 82
-8 l74 0 0 82 0 83 -82 0 -83 0 0 82 0 83 -82 1 -83 0 0 -83z"/>
<path d="M4130 1072 l0 -83 82 3 83 3 0 65 c1 101 5 97 -86 96 l-79 0 0 -84z"/>
</g>
</svg>
